HIERARCHY
ROOT RootJoint
{
    OFFSET   0.000000   0.000000   0.000000
    CHANNELS 6 Xposition Yposition Zposition Xrotation Yrotation Zrotation
    JOINT pelvis_lowerback
    {
        OFFSET   0.000000   0.093605   0.000000
        CHANNELS 3 Xrotation Yrotation Zrotation
        JOINT lowerback_torso
        {
            OFFSET   0.000000   0.100000   0.000000
            CHANNELS 3 Xrotation Yrotation Zrotation
            JOINT torso_head
            {
                OFFSET   0.000000   0.282350   0.000000
                CHANNELS 3 Xrotation Yrotation Zrotation
                End Site
                {
                    OFFSET   0.000000   0.192650   0.000000
                }
            }
            JOINT rTorso_Clavicle
            {
                OFFSET  -0.001000   0.157500   0.000000
                CHANNELS 3 Xrotation Yrotation Zrotation
                JOINT rShoulder
                {
                    OFFSET  -0.117647   0.000000   0.000000
                    CHANNELS 3 Xrotation Yrotation Zrotation
                    JOINT rElbow
                    {
                        OFFSET  -0.245000   0.000000   0.000000
                        CHANNELS 3 Xrotation Yrotation Zrotation
                        JOINT rWrist
                        {
                            OFFSET  -0.240000   0.000000   0.000000
                            CHANNELS 3 Xrotation Yrotation Zrotation
                            End Site
                            {
                                OFFSET  -0.116353  -0.002500   0.000000
                            }
                        }
                    }
                }
            }
            JOINT lTorso_Clavicle
            {
                OFFSET   0.001000   0.157500   0.000000
                CHANNELS 3 Xrotation Yrotation Zrotation
                JOINT lShoulder
                {
                    OFFSET   0.117647   0.000000   0.000000
                    CHANNELS 3 Xrotation Yrotation Zrotation
                    JOINT lElbow
                    {
                        OFFSET   0.245000   0.000000   0.000000
                        CHANNELS 3 Xrotation Yrotation Zrotation
                        JOINT lWrist
                        {
                            OFFSET   0.240000   0.000000   0.000000
                            CHANNELS 3 Xrotation Yrotation Zrotation
                            End Site
                            {
                                OFFSET   0.116353  -0.002500   0.000000
                            }
                        }
                    }
                }
            }
        }
    }
    JOINT rHip
    {
        OFFSET  -0.100000  -0.051395   0.000000
        CHANNELS 3 Xrotation Yrotation Zrotation
        JOINT rKnee
        {
            OFFSET   0.000000  -0.410000   0.000000
            CHANNELS 3 Xrotation Yrotation Zrotation
            JOINT rAnkle
            {
                OFFSET   0.000000  -0.390000   0.000000
                CHANNELS 3 Xrotation Yrotation Zrotation
                JOINT rToeJoint
                {
                    OFFSET   0.000000  -0.050000   0.130000
                    CHANNELS 3 Xrotation Yrotation Zrotation
                    End Site
                    {
                        OFFSET  -0.010000   0.002000   0.060000
                    }
                }
            }
        }
    }
    JOINT lHip
    {
        OFFSET   0.100000  -0.051395   0.000000
        CHANNELS 3 Xrotation Yrotation Zrotation
        JOINT lKnee
        {
            OFFSET   0.000000  -0.410000   0.000000
            CHANNELS 3 Xrotation Yrotation Zrotation
            JOINT lAnkle
            {
                OFFSET   0.000000  -0.390000   0.000000
                CHANNELS 3 Xrotation Yrotation Zrotation
                JOINT lToeJoint
                {
                    OFFSET   0.000000  -0.050000   0.130000
                    CHANNELS 3 Xrotation Yrotation Zrotation
                    End Site
                    {
                        OFFSET   0.010000   0.002000   0.060000
                    }
                }
            }
        }
    }
}
MOTION
Frames: 15
Frame Time:   0.008333
 -2.376719   0.925631   3.975860   0.000000   0.000000   0.000000   0.000000   0.000000   0.000000   0.000000   0.000000   0.000000   0.000000   0.000000   0.000000   0.000000   0.000000   0.000000   0.000000   0.000000   0.000000   0.000000   0.000000   0.000000   0.000000   0.000000   0.000000   0.000000   0.000000   0.000000   0.000000   0.000000   0.000000   0.000000   0.000000   0.000000   0.000000   0.000000   0.000000   0.000000   0.000000   0.000000   0.000000   0.000000   0.000000   0.000000   0.000000   0.000000   0.000000   0.000000   0.000000   0.000000   0.000000   0.000000   0.000000   0.000000   0.000000   0.000000   0.000000   0.000000   0.000000   0.000000   0.000000
 -2.376316   0.926268   3.976507  -0.959281  -0.000468   0.263875   0.977922   0.055636  -0.250769   0.237198  -0.120992  -0.054474  -0.055974   0.183736   0.044826  -0.014786  -0.280244   0.548926   0.411994   0.204587   2.034408   0.017321   0.778860  -0.004521   0.134167  -0.271217  -2.930467   0.015456   0.254096  -0.275787   0.227100  -0.029058  -2.156503   0.018978  -0.877480   0.003933   0.118941   0.250849   2.853487   0.805190   0.138331  -0.448656   1.011120   0.001643   0.001232  -1.003222  -0.057482   0.079871   0.054231   0.000049   0.000040   0.971567  -0.118985  -0.267735   0.628370   0.000018  -0.000631  -0.873998   0.254903   0.339904   0.205672  -0.000600   0.000254
 -2.375769   0.927355   3.977405  -1.958471   0.028776   0.545997   1.886108   0.085520  -0.488128   0.546739  -0.257316  -0.111656  -0.063963   0.360163   0.078519  -0.021398  -0.552009   1.853202   0.806021   0.436688   4.679765   0.039963   1.533914  -0.007619   0.295028  -0.299884  -5.103192   0.037506   0.484270  -1.293935   0.445245  -0.094270  -4.906491   0.043454  -1.729471   0.006660   0.262373   0.233627   4.945470   1.646970   0.258524  -1.020420   2.139420   0.004247   0.002457  -1.935597  -0.114289   0.152012   0.080151   0.000089   0.000056   2.003275  -0.237228  -0.505487   1.361599  -0.000276  -0.000976  -1.693077   0.490084   0.660652   0.343486  -0.000915   0.000400
 -2.375152   0.928460   3.978452  -2.902156   0.071426   0.810378   2.702412   0.099280  -0.690620   0.828169  -0.398204  -0.150460  -0.065582   0.524904   0.107796  -0.020957  -0.807485   3.607774   1.180038   0.685100   7.723147   0.061929   2.240587  -0.009240   0.454458  -0.266864  -6.394069   0.063061   0.686468  -2.767043   0.653554  -0.180989  -8.044568   0.067086  -2.530662   0.008092   0.406565   0.136494   6.177365   2.453433   0.357359  -1.648538   3.229586   0.007002   0.003237  -2.803654  -0.169703   0.217685   0.105365   0.000137   0.000068   3.011796  -0.346892  -0.674853   2.083388  -0.000814  -0.001035  -2.457753   0.706055   0.963160   0.464641  -0.001146   0.000505
 -2.374524   0.929261   3.979590  -3.779603   0.117488   1.055088   3.437911   0.102571  -0.864780   1.070995  -0.538929  -0.177939  -0.069937   0.678682   0.137886  -0.010835  -1.050766   5.615571   1.535594   0.948257  11.036978   0.080589   2.898360  -0.009837   0.605271  -0.226607  -7.022940   0.093594   0.869299  -4.525838   0.847833  -0.279720 -11.348305   0.086753  -3.279562   0.008602   0.544242   0.020440   6.725981   3.211677   0.437220  -2.310208   4.255615   0.009515   0.003549  -3.614048  -0.223343   0.277638   0.122980   0.000166   0.000068   3.982876  -0.448030  -0.777618   2.771587  -0.001483  -0.000934  -3.172738   0.904582   1.248472   0.569734  -0.001301   0.000566
 -2.373941   0.929514   3.980774  -4.594830   0.162003   1.283055   4.104895   0.098459  -1.020542   1.281393  -0.677162  -0.204233  -0.077472   0.822201   0.169414   0.010634  -1.285217   7.746375   1.873502   1.225222  14.534877   0.094969   3.509130  -0.009788   0.745058  -0.197375  -7.197459   0.130488   1.039175  -6.451589   1.025101  -0.383007 -14.640959   0.101194  -3.977627   0.008521   0.672272  -0.092101   6.777669   3.920356   0.500701  -2.991293   5.215957   0.011601   0.003490  -4.370994  -0.274975   0.332435   0.133260   0.000169   0.000061   4.913777  -0.541288  -0.821156   3.423499  -0.002200  -0.000753  -3.841361   1.087127   1.517414   0.660882  -0.001394   0.000589
 -2.373437   0.929045   3.981969  -5.353738   0.202458   1.495829   4.713862   0.088880  -1.163421   1.466914  -0.811648  -0.230788  -0.087250   0.956125   0.199600   0.044051  -1.512169   9.910368   2.193874   1.515660  18.155588   0.105027   4.075616  -0.009363   0.873628  -0.185276  -7.077682   0.174049   1.199507  -8.438712   1.187107  -0.487441 -17.851724   0.110453  -4.627429   0.008113   0.790083  -0.192438   6.515210   4.580535   0.550280  -3.680834   6.113464   0.013201   0.003169  -5.077982  -0.324404   0.382595   0.138120   0.000154   0.000052   5.803806  -0.627200  -0.813322   4.039957  -0.002898  -0.000539  -4.466501   1.255058   1.770793   0.740615  -0.001438   0.000586
 -2.373204   0.927130   3.982527  -5.611805   0.100481   1.496429   4.904090   0.157856  -1.074329   1.575269  -0.912392  -0.283044  -0.213707   0.984242   0.179199   0.205820  -1.584649  11.439078   2.643246   1.786530  21.704524   0.110247   4.652762  -0.010383   0.913099  -0.126032  -5.897136   0.355294   1.385604  -9.614060   1.243478  -0.496142 -21.140356   0.113664  -5.278356   0.007743   0.831987  -0.388855   5.295719   4.441289   0.557618  -4.062052   7.476300   0.014927   0.000361  -5.942816  -0.377776   0.655447   0.305294   0.000276  -0.000215   6.286192  -0.553883  -0.609542   3.902386  -0.002062  -0.000434  -4.429038   1.532072   2.066548   0.784330  -0.001343   0.000568
 -2.373074   0.924004   3.982812  -5.813781   0.037807   1.461313   5.117796   0.206583  -0.969361   1.667286  -1.007357  -0.302585  -0.348813   1.003712   0.154415   0.352700  -1.633562  12.708812   3.044866   2.071048  24.917720   0.110086   5.194467  -0.011068   0.956878  -0.051758  -4.746652   0.523931   1.558788 -10.498843   1.296092  -0.500985 -24.077360   0.111057  -5.884615   0.007434   0.866322  -0.580600   4.159152   4.257077   0.554206  -4.340950   8.767941   0.015300  -0.001545  -6.748203  -0.431578   0.910295   0.459475   0.000297  -0.000383   6.658293  -0.484598  -0.402659   3.643352  -0.001251  -0.000404  -4.396286   1.792031   2.343795   0.855779  -0.001354   0.000629
 -2.372975   0.919789   3.982933  -5.995678   0.002822   1.419115   5.350705   0.252415  -0.862420   1.771506  -1.093941  -0.301343  -0.472156   1.021252   0.129645   0.483828  -1.669973  13.786667   3.400986   2.360493  27.840374   0.106548   5.702606  -0.011461   0.999733   0.029269  -3.787205   0.676605   1.716551 -11.181459   1.342344  -0.507734 -26.716783   0.105129  -6.451312   0.007080   0.897311  -0.764617   3.258004   4.084728   0.551301  -4.563949   9.971167   0.014858  -0.002650  -7.499665  -0.484330   1.147688   0.602111   0.000270  -0.000468   6.950741  -0.417956  -0.228463   3.361854  -0.000673  -0.000428  -4.368698   2.034646   2.602668   0.920244  -0.001299   0.000666
 -2.372943   0.917891   3.983127  -6.331812   0.144101   0.917786   5.696190   0.256509  -0.369504   1.957263  -1.198847  -0.125015  -0.575094   1.036348   0.119832   0.599915  -1.691676  14.857219   3.715621   2.646880  30.531078   0.101630   6.170263  -0.011696   1.037256   0.073013  -3.062804   0.804051   1.833371 -11.958827   1.376195  -0.532493 -29.210637   0.098717  -6.981557   0.006602   0.926648  -0.935369   2.565375   3.781466   0.516659  -4.057546  11.376631   0.012017  -0.002114  -8.250242  -0.506623   1.619402   0.295236   0.001450  -0.000395   7.317900  -0.361810   0.339980   3.107760  -0.000439  -0.000663  -4.335832   2.263578   2.846258   1.044316  -0.001345   0.000950
 -2.372445   0.917643   3.983610  -6.644866  -0.009407   1.223482   5.974884   0.362483  -0.590093   2.136048  -1.229296  -0.201905  -0.659285   1.054185   0.100353   0.710823  -1.706846  15.954356   3.994390   2.938956  33.132896   0.096073   6.613422  -0.011356   1.077532   0.136447  -2.303320   0.947147   1.987817 -12.583350   1.422922  -0.523410 -31.468563   0.091146  -7.463598   0.005917   0.950383  -1.054019   1.946882   3.595776   0.539168  -4.438918  12.415720   0.009947  -0.003294  -8.893561  -0.555471   1.808599   0.480886   0.000954  -0.000633   7.711285  -0.376759  -0.044352   3.085253  -0.000362  -0.000506  -4.392624   2.383358   2.965664   0.870989  -0.000997   0.000755
 -2.372020   0.917472   3.984098  -6.881143  -0.171172   1.451603   6.197633   0.461254  -0.665265   2.271425  -1.247154  -0.285100  -0.744366   1.070039   0.060919   0.815623  -1.725868  16.859990   4.244357   3.218569  35.516035   0.089455   7.029287  -0.010733   1.114964   0.214992  -1.552119   1.094454   2.152518 -13.094750   1.476202  -0.501496 -33.563444   0.082849  -7.910493   0.005186   0.969880  -1.146547   1.348263   3.393191   0.553431  -4.675230  13.334295   0.007640  -0.004062  -9.497836  -0.607916   1.984332   0.652886   0.000483  -0.000827   8.060231  -0.383874  -0.347902   2.993659  -0.000328  -0.000299  -4.422231   2.511745   3.120177   0.744554  -0.000695   0.000601
 -2.371640   0.917298   3.984596  -6.939639  -0.335915   1.652502   6.250224   0.546229  -0.721675   2.313256  -1.248050  -0.292672  -0.758530   1.007537  -0.077507   0.881973  -1.797402  17.298340   4.482954   3.406201  37.345446   0.079934   7.413094  -0.009457   1.132033   0.407839  -0.043510   1.313864   2.340752 -13.302519   1.491292  -0.452120 -35.339704   0.074632  -8.430726   0.004284   0.949682  -1.204581   0.310785   3.077498   0.519451  -4.858070  13.992153   0.005642  -0.004509  -9.955546  -0.673327   2.083801   0.902654   0.000072  -0.001260   8.200418  -0.367203  -0.620210   2.947219  -0.000280  -0.000192  -4.466647   2.625734   3.264138   0.646756  -0.000480   0.000478
 -2.371328   0.917151   3.985154  -6.957590  -0.452937   1.820313   6.270364   0.606935  -0.733295   2.323115  -1.262233  -0.297098  -0.777518   0.945675  -0.200924   0.943943  -1.882824  17.407833   4.708921   3.560952  38.835531   0.069571   7.764650  -0.008183   1.141850   0.577153   1.171298   1.516036   2.526017 -13.286983   1.504522  -0.398080 -36.850072   0.065381  -8.918741   0.003356   0.929159  -1.280811  -0.516251   2.814015   0.535401  -5.081683  14.636029   0.004590  -0.004372 -10.360112  -0.707116   2.128023   1.129340   0.000046  -0.001311   8.300523  -0.368711  -0.846127   2.891017  -0.000243  -0.000108  -4.504708   2.715779   3.404663   0.573704  -0.000324   0.000381
